<svg xmlns="http://www.w3.org/2000/svg" style="display:none">
  <!-- Prediction -->
  <symbol id="game-prediction" viewBox="0 0 64 64">
    <defs><radialGradient id="pred-bg" cx="50%" cy="50%" r="50%"><stop offset="0%" stop-color="#1A6FFF" stop-opacity="0.3"/><stop offset="100%" stop-color="#0D1B3E"/></radialGradient></defs>
    <rect width="64" height="64" rx="12" fill="url(#pred-bg)"/>
    <circle cx="32" cy="28" r="14" fill="none" stroke="#1A6FFF" stroke-width="1.5"/>
    <circle cx="32" cy="28" r="9" fill="#0A4FCC" opacity="0.5"/>
    <path d="M26 28 L30 24 L34 32 L38 20" stroke="#C9A84C" stroke-width="2" fill="none" stroke-linecap="round" stroke-linejoin="round"/>
    <circle cx="38" cy="20" r="2" fill="#C9A84C"/>
    <path d="M18 46 L32 38 L46 46" stroke="#1A6FFF" stroke-width="1.5" fill="none" stroke-linecap="round"/>
    <text x="32" y="60" text-anchor="middle" font-family="Arial" font-size="8" font-weight="700" fill="#8A9BB0">PREDICT</text>
  </symbol>
  <!-- Dice -->
  <symbol id="game-dice" viewBox="0 0 64 64">
    <defs><linearGradient id="dice-bg" x1="0%" y1="0%" x2="100%" y2="100%"><stop offset="0%" stop-color="#1A6FFF"/><stop offset="100%" stop-color="#0A3A99"/></linearGradient></defs>
    <rect width="64" height="64" rx="12" fill="#0D1B3E"/>
    <rect x="10" y="10" width="44" height="44" rx="8" fill="url(#dice-bg)" stroke="#C9A84C" stroke-width="1.5"/>
    <circle cx="22" cy="22" r="4" fill="white"/>
    <circle cx="32" cy="32" r="4" fill="white"/>
    <circle cx="42" cy="42" r="4" fill="white"/>
    <circle cx="42" cy="22" r="4" fill="white"/>
    <circle cx="22" cy="42" r="4" fill="white"/>
    <circle cx="32" cy="22" r="4" fill="white" opacity="0.4"/>
  </symbol>
  <!-- Wheel -->
  <symbol id="game-wheel" viewBox="0 0 64 64">
    <rect width="64" height="64" rx="12" fill="#0D1B3E"/>
    <circle cx="32" cy="32" r="24" fill="none" stroke="#1A6FFF" stroke-width="1"/>
    <path d="M32 8 L38 32 L32 56 L26 32 Z" fill="#E8192C" opacity="0.8"/>
    <path d="M8 32 L32 26 L56 32 L32 38 Z" fill="#1A6FFF" opacity="0.8"/>
    <path d="M15 15 L32 26 L43 43 Z" fill="#C9A84C" opacity="0.7"/>
    <path d="M49 15 L38 26 L21 43 Z" fill="#9B59B6" opacity="0.7"/>
    <circle cx="32" cy="32" r="6" fill="#0D1B3E" stroke="#C9A84C" stroke-width="2"/>
    <circle cx="32" cy="32" r="2" fill="#C9A84C"/>
    <line x1="32" y1="8" x2="32" y2="12" stroke="#C9A84C" stroke-width="2" stroke-linecap="round"/>
  </symbol>
  <!-- Mines -->
  <symbol id="game-mines" viewBox="0 0 64 64">
    <rect width="64" height="64" rx="12" fill="#0D1B3E"/>
    <rect x="8" y="8" width="14" height="14" rx="3" fill="#1A6FFF" opacity="0.7"/>
    <rect x="25" y="8" width="14" height="14" rx="3" fill="#E8192C" opacity="0.9"/>
    <rect x="42" y="8" width="14" height="14" rx="3" fill="#1A6FFF" opacity="0.7"/>
    <rect x="8" y="25" width="14" height="14" rx="3" fill="#1A6FFF" opacity="0.7"/>
    <rect x="25" y="25" width="14" height="14" rx="3" fill="#C9A84C" opacity="0.8"/>
    <rect x="42" y="25" width="14" height="14" rx="3" fill="#1A6FFF" opacity="0.7"/>
    <rect x="8" y="42" width="14" height="14" rx="3" fill="#E8192C" opacity="0.9"/>
    <rect x="25" y="42" width="14" height="14" rx="3" fill="#1A6FFF" opacity="0.7"/>
    <rect x="42" y="42" width="14" height="14" rx="3" fill="#1A6FFF" opacity="0.7"/>
    <circle cx="32" cy="32" r="4" fill="#C9A84C"/>
  </symbol>
  <!-- Crash -->
  <symbol id="game-crash" viewBox="0 0 64 64">
    <rect width="64" height="64" rx="12" fill="#0D1B3E"/>
    <path d="M8 52 L48 12" stroke="#1A6FFF" stroke-width="2" stroke-linecap="round"/>
    <path d="M8 52 L20 52 L20 40 L32 32 L44 20 L50 14" stroke="#C9A84C" stroke-width="2.5" fill="none" stroke-linecap="round" stroke-linejoin="round"/>
    <circle cx="50" cy="14" r="5" fill="#E8192C"/>
    <line x1="47" y1="11" x2="53" y2="17" stroke="white" stroke-width="1.5"/>
    <line x1="53" y1="11" x2="47" y2="17" stroke="white" stroke-width="1.5"/>
    <path d="M44 20 L50 8 L52 22 Z" fill="#E8192C" opacity="0.6"/>
  </symbol>
  <!-- Keno -->
  <symbol id="game-keno" viewBox="0 0 64 64">
    <rect width="64" height="64" rx="12" fill="#0D1B3E"/>
    <circle cx="16" cy="16" r="7" fill="#1A6FFF" opacity="0.7"/><text x="16" y="20" text-anchor="middle" font-family="Arial" font-size="8" font-weight="700" fill="white">5</text>
    <circle cx="32" cy="16" r="7" fill="#E8192C" opacity="0.9"/><text x="32" y="20" text-anchor="middle" font-family="Arial" font-size="8" font-weight="700" fill="white">12</text>
    <circle cx="48" cy="16" r="7" fill="#1A6FFF" opacity="0.7"/><text x="48" y="20" text-anchor="middle" font-family="Arial" font-size="8" font-weight="700" fill="white">23</text>
    <circle cx="16" cy="32" r="7" fill="#C9A84C" opacity="0.8"/><text x="16" y="36" text-anchor="middle" font-family="Arial" font-size="8" font-weight="700" fill="white">34</text>
    <circle cx="32" cy="32" r="7" fill="#1A6FFF" opacity="0.7"/><text x="32" y="36" text-anchor="middle" font-family="Arial" font-size="8" font-weight="700" fill="white">45</text>
    <circle cx="48" cy="32" r="7" fill="#E8192C" opacity="0.9"/><text x="48" y="36" text-anchor="middle" font-family="Arial" font-size="8" font-weight="700" fill="white">67</text>
    <circle cx="16" cy="48" r="7" fill="#1A6FFF" opacity="0.7"/><text x="16" y="52" text-anchor="middle" font-family="Arial" font-size="8" font-weight="700" fill="white">72</text>
    <circle cx="32" cy="48" r="7" fill="#C9A84C" opacity="0.8"/><text x="32" y="52" text-anchor="middle" font-family="Arial" font-size="8" font-weight="700" fill="white">80</text>
    <circle cx="48" cy="48" r="7" fill="#1A6FFF" opacity="0.7"/><text x="48" y="52" text-anchor="middle" font-family="Arial" font-size="8" font-weight="700" fill="white">15</text>
  </symbol>
  <!-- Card -->
  <symbol id="game-card" viewBox="0 0 64 64">
    <rect width="64" height="64" rx="12" fill="#0D1B3E"/>
    <rect x="8" y="12" width="30" height="42" rx="4" fill="#1A6FFF" stroke="#C9A84C" stroke-width="1"/>
    <rect x="20" y="8" width="30" height="42" rx="4" fill="#0A4FCC" stroke="#C9A84C" stroke-width="1"/>
    <rect x="24" y="12" width="22" height="32" rx="3" fill="white"/>
    <text x="35" y="30" text-anchor="middle" font-family="Georgia,serif" font-size="16" font-weight="700" fill="#E8192C">A</text>
    <text x="28" y="22" font-family="Georgia,serif" font-size="10" fill="#E8192C">A</text>
    <text x="38" y="42" text-anchor="end" font-family="Georgia,serif" font-size="10" fill="#E8192C">A</text>
  </symbol>
  <!-- Slot -->
  <symbol id="game-slot" viewBox="0 0 64 64">
    <rect width="64" height="64" rx="12" fill="#0D1B3E"/>
    <rect x="6" y="14" width="52" height="36" rx="6" fill="#091229" stroke="#1A6FFF" stroke-width="1.5"/>
    <rect x="12" y="18" width="12" height="28" rx="3" fill="#0A4FCC"/>
    <rect x="26" y="18" width="12" height="28" rx="3" fill="#0A4FCC"/>
    <rect x="40" y="18" width="12" height="28" rx="3" fill="#0A4FCC"/>
    <text x="18" y="37" text-anchor="middle" font-family="Arial" font-size="16" fill="#FFD700">7</text>
    <text x="32" y="37" text-anchor="middle" font-family="Arial" font-size="16" fill="#FFD700">7</text>
    <text x="46" y="37" text-anchor="middle" font-family="Arial" font-size="16" fill="#FFD700">7</text>
    <line x1="6" y1="32" x2="58" y2="32" stroke="#C9A84C" stroke-width="1" opacity="0.5"/>
  </symbol>
  <!-- Coin -->
  <symbol id="game-coin" viewBox="0 0 64 64">
    <defs><linearGradient id="coin-g" x1="0%" y1="0%" x2="100%" y2="100%"><stop offset="0%" stop-color="#FFD700"/><stop offset="100%" stop-color="#B8860B"/></linearGradient></defs>
    <rect width="64" height="64" rx="12" fill="#0D1B3E"/>
    <circle cx="32" cy="32" r="22" fill="url(#coin-g)" stroke="#8B6914" stroke-width="2"/>
    <circle cx="32" cy="32" r="17" fill="none" stroke="#8B6914" stroke-width="1"/>
    <text x="32" y="37" text-anchor="middle" font-family="Georgia,serif" font-size="14" font-weight="900" fill="#5D3A00">19</text>
  </symbol>
  <!-- Arcade -->
  <symbol id="game-arcade" viewBox="0 0 64 64">
    <rect width="64" height="64" rx="12" fill="#0D1B3E"/>
    <rect x="20" y="28" width="24" height="18" rx="4" fill="#091229" stroke="#1A6FFF" stroke-width="1.5"/>
    <circle cx="32" cy="37" r="7" fill="#1A6FFF" stroke="#0A3A99" stroke-width="1"/>
    <circle cx="32" cy="37" r="4" fill="#0A4FCC"/>
    <circle cx="32" cy="37" r="2" fill="#1A6FFF" opacity="0.5"/>
    <rect x="24" y="50" width="6" height="10" rx="2" fill="#1A6FFF"/>
    <rect x="34" y="50" width="6" height="10" rx="2" fill="#1A6FFF"/>
    <rect x="16" y="20" width="32" height="12" rx="4" fill="#0A4FCC" stroke="#1A6FFF" stroke-width="1"/>
    <circle cx="24" cy="26" r="3" fill="#E8192C"/>
    <circle cx="32" cy="26" r="3" fill="#C9A84C"/>
    <circle cx="40" cy="26" r="3" fill="#1A6FFF"/>
  </symbol>
  <!-- Puzzle -->
  <symbol id="game-puzzle" viewBox="0 0 64 64">
    <rect width="64" height="64" rx="12" fill="#0D1B3E"/>
    <path d="M12 12 h16 v8 a4 4 0 008 0 v-8 h16 v16 h-8 a4 4 0 000 8 h8 v16 h-16 v-8 a4 4 0 00-8 0 v8 h-16 v-16 h8 a4 4 0 000-8 h-8 Z" fill="#1A6FFF" stroke="#0A3A99" stroke-width="1.5"/>
    <path d="M12 12 h16 v8 a4 4 0 008 0 v-8 h16" fill="none" stroke="#C9A84C" stroke-width="1" opacity="0.5"/>
  </symbol>
  <!-- Reward -->
  <symbol id="game-reward" viewBox="0 0 64 64">
    <rect width="64" height="64" rx="12" fill="#0D1B3E"/>
    <rect x="10" y="28" width="44" height="28" rx="4" fill="#1A6FFF" stroke="#0A4FCC" stroke-width="1"/>
    <rect x="14" y="22" width="36" height="10" rx="3" fill="#0A4FCC" stroke="#C9A84C" stroke-width="1.5"/>
    <path d="M32 10 C26 10 22 14 22 18 C22 22 26 22 32 22 C38 22 42 22 42 18 C42 14 38 10 32 10" fill="#E8192C"/>
    <path d="M30 22 L30 56 M34 22 L34 56" stroke="#C9A84C" stroke-width="1.5"/>
    <path d="M20 36 C26 34 32 38 38 36 C42 34 44 38 44 38" stroke="#C9A84C" stroke-width="1" fill="none"/>
  </symbol>
  <!-- Tower -->
  <symbol id="game-tower" viewBox="0 0 64 64">
    <rect width="64" height="64" rx="12" fill="#0D1B3E"/>
    <rect x="16" y="48" width="32" height="8" rx="2" fill="#1A6FFF"/>
    <rect x="20" y="38" width="24" height="10" rx="2" fill="#0A4FCC"/>
    <rect x="24" y="28" width="16" height="10" rx="2" fill="#1A6FFF"/>
    <rect x="27" y="18" width="10" height="10" rx="2" fill="#0A4FCC"/>
    <rect x="29" y="10" width="6" height="8" rx="2" fill="#C9A84C"/>
    <circle cx="32" cy="8" r="3" fill="#C9A84C"/>
  </symbol>
  <!-- Treasure -->
  <symbol id="game-treasure" viewBox="0 0 64 64">
    <defs><linearGradient id="chest-g" x1="0%" y1="0%" x2="100%" y2="100%"><stop offset="0%" stop-color="#8B4513"/><stop offset="100%" stop-color="#5C2E00"/></linearGradient></defs>
    <rect width="64" height="64" rx="12" fill="#0D1B3E"/>
    <rect x="8" y="30" width="48" height="26" rx="4" fill="url(#chest-g)" stroke="#C9A84C" stroke-width="1.5"/>
    <path d="M8 30 Q8 18 32 18 Q56 18 56 30" fill="#A0522D" stroke="#C9A84C" stroke-width="1.5"/>
    <rect x="24" y="26" width="16" height="8" rx="3" fill="#C9A84C"/>
    <circle cx="32" cy="30" r="3" fill="#FFD700"/>
    <text x="32" y="48" text-anchor="middle" font-family="Arial" font-size="9" fill="#FFD700">$$$</text>
  </symbol>
  <!-- Scratch Card -->
  <symbol id="game-scratch" viewBox="0 0 64 64">
    <rect width="64" height="64" rx="12" fill="#0D1B3E"/>
    <rect x="8" y="14" width="48" height="36" rx="6" fill="#1A6FFF" stroke="#C9A84C" stroke-width="1.5"/>
    <rect x="14" y="20" width="14" height="10" rx="2" fill="#C9A84C" opacity="0.4"/>
    <rect x="34" y="20" width="14" height="10" rx="2" fill="#C9A84C" opacity="0.4"/>
    <rect x="14" y="36" width="14" height="10" rx="2" fill="#C9A84C" opacity="0.4"/>
    <rect x="34" y="36" width="14" height="10" rx="2" fill="#C9A84C" opacity="0.4"/>
    <path d="M12 18 Q32 8 52 18" stroke="#C9A84C" stroke-width="2" fill="none" stroke-linecap="round"/>
    <text x="21" y="28" text-anchor="middle" font-family="Arial" font-size="8" fill="#FFD700">7</text>
    <text x="41" y="28" text-anchor="middle" font-family="Arial" font-size="8" fill="#FFD700">7</text>
  </symbol>
  <!-- Lucky Number -->
  <symbol id="game-lucky" viewBox="0 0 64 64">
    <defs><linearGradient id="lucky-g" x1="0%" y1="0%" x2="100%" y2="100%"><stop offset="0%" stop-color="#C9A84C"/><stop offset="100%" stop-color="#8B6914"/></linearGradient></defs>
    <rect width="64" height="64" rx="12" fill="#0D1B3E"/>
    <circle cx="32" cy="32" r="24" fill="url(#lucky-g)" stroke="#FFD700" stroke-width="2"/>
    <text x="32" y="42" text-anchor="middle" font-family="Georgia,serif" font-size="30" font-weight="900" fill="#0D1B3E">7</text>
    <path d="M20 14 L32 8 L44 14" stroke="#0D1B3E" stroke-width="2" fill="none" stroke-linecap="round"/>
  </symbol>
  <!-- Memory -->
  <symbol id="game-memory" viewBox="0 0 64 64">
    <rect width="64" height="64" rx="12" fill="#0D1B3E"/>
    <rect x="8" y="10" width="20" height="20" rx="3" fill="#1A6FFF"/><text x="18" y="25" text-anchor="middle" font-family="Arial" font-size="12" fill="white">?</text>
    <rect x="36" y="10" width="20" height="20" rx="3" fill="#E8192C"/><text x="46" y="25" text-anchor="middle" font-family="Arial" font-size="12" fill="white">A</text>
    <rect x="8" y="36" width="20" height="20" rx="3" fill="#9B59B6"/><text x="18" y="51" text-anchor="middle" font-family="Arial" font-size="12" fill="white">A</text>
    <rect x="36" y="36" width="20" height="20" rx="3" fill="#1A6FFF"/><text x="46" y="51" text-anchor="middle" font-family="Arial" font-size="12" fill="white">?</text>
  </symbol>
  <!-- Stock Prediction -->
  <symbol id="game-stock" viewBox="0 0 64 64">
    <rect width="64" height="64" rx="12" fill="#0D1B3E"/>
    <line x1="8" y1="56" x2="56" y2="56" stroke="#1A6FFF" stroke-width="1"/>
    <line x1="8" y1="8" x2="8" y2="56" stroke="#1A6FFF" stroke-width="1"/>
    <rect x="14" y="32" width="8" height="24" rx="1" fill="#E8192C" opacity="0.8"/>
    <rect x="26" y="20" width="8" height="36" rx="1" fill="#1A6FFF" opacity="0.8"/>
    <rect x="38" y="28" width="8" height="28" rx="1" fill="#E8192C" opacity="0.8"/>
    <rect x="50" y="12" width="8" height="44" rx="1" fill="#1A6FFF" opacity="0.8"/>
    <path d="M14 28 L22 24 L30 16 L38 22 L50 8" stroke="#C9A84C" stroke-width="2" fill="none" stroke-linecap="round" stroke-linejoin="round"/>
  </symbol>
  <!-- Casino -->
  <symbol id="game-casino" viewBox="0 0 64 64">
    <defs><linearGradient id="chip-g" x1="0%" y1="0%" x2="100%" y2="100%"><stop offset="0%" stop-color="#E8192C"/><stop offset="100%" stop-color="#8B0000"/></linearGradient></defs>
    <rect width="64" height="64" rx="12" fill="#0D1B3E"/>
    <circle cx="32" cy="32" r="22" fill="url(#chip-g)" stroke="#C9A84C" stroke-width="2"/>
    <circle cx="32" cy="32" r="17" fill="none" stroke="#C9A84C" stroke-width="1" stroke-dasharray="5 3"/>
    <circle cx="32" cy="32" r="12" fill="#8B0000"/>
    <text x="32" y="37" text-anchor="middle" font-family="Arial" font-size="10" font-weight="900" fill="#FFD700">VIP</text>
    <rect x="10" y="30" width="4" height="4" rx="1" fill="white"/>
    <rect x="50" y="30" width="4" height="4" rx="1" fill="white"/>
    <rect x="30" y="10" width="4" height="4" rx="1" fill="white"/>
    <rect x="30" y="50" width="4" height="4" rx="1" fill="white"/>
  </symbol>
</svg>
