<svg xmlns="http://www.w3.org/2000/svg" style="display:none">
  <!-- home -->
  <symbol id="icon-home" viewBox="0 0 24 24" fill="none" stroke="currentColor" stroke-width="1.8" stroke-linecap="round" stroke-linejoin="round">
    <path d="M3 9.5L12 3l9 6.5V21a1 1 0 01-1 1H4a1 1 0 01-1-1V9.5z"/><path d="M9 22V12h6v10"/>
  </symbol>
  <!-- wallet -->
  <symbol id="icon-wallet" viewBox="0 0 24 24" fill="none" stroke="currentColor" stroke-width="1.8" stroke-linecap="round" stroke-linejoin="round">
    <rect x="2" y="5" width="20" height="16" rx="2"/><path d="M16 13a1 1 0 100 2 1 1 0 000-2z" fill="currentColor"/><path d="M2 10h20"/>
  </symbol>
  <!-- profile -->
  <symbol id="icon-profile" viewBox="0 0 24 24" fill="none" stroke="currentColor" stroke-width="1.8" stroke-linecap="round" stroke-linejoin="round">
    <circle cx="12" cy="8" r="4"/><path d="M4 20c0-4 3.6-7 8-7s8 3 8 7"/>
  </symbol>
  <!-- bell -->
  <symbol id="icon-bell" viewBox="0 0 24 24" fill="none" stroke="currentColor" stroke-width="1.8" stroke-linecap="round" stroke-linejoin="round">
    <path d="M18 8A6 6 0 006 8c0 7-3 9-3 9h18s-3-2-3-9"/><path d="M13.73 21a2 2 0 01-3.46 0"/>
  </symbol>
  <!-- events -->
  <symbol id="icon-events" viewBox="0 0 24 24" fill="none" stroke="currentColor" stroke-width="1.8" stroke-linecap="round" stroke-linejoin="round">
    <rect x="3" y="4" width="18" height="18" rx="2"/><path d="M16 2v4M8 2v4M3 10h18"/><path d="M8 14h.01M12 14h.01M16 14h.01M8 18h.01M12 18h.01"/>
  </symbol>
  <!-- trophy -->
  <symbol id="icon-trophy" viewBox="0 0 24 24" fill="none" stroke="currentColor" stroke-width="1.8" stroke-linecap="round" stroke-linejoin="round">
    <path d="M8 21h8M12 17v4M5 3H3v5c0 2.8 2.2 5 5 5h8c2.8 0 5-2.2 5-5V3h-2"/><path d="M8 3h8v7a4 4 0 01-8 0V3z"/>
  </symbol>
  <!-- support -->
  <symbol id="icon-support" viewBox="0 0 24 24" fill="none" stroke="currentColor" stroke-width="1.8" stroke-linecap="round" stroke-linejoin="round">
    <circle cx="12" cy="12" r="10"/><path d="M9.09 9a3 3 0 015.83 1c0 2-3 3-3 3"/><path d="M12 17h.01"/>
  </symbol>
  <!-- settings -->
  <symbol id="icon-settings" viewBox="0 0 24 24" fill="none" stroke="currentColor" stroke-width="1.8" stroke-linecap="round" stroke-linejoin="round">
    <circle cx="12" cy="12" r="3"/><path d="M19.4 15a1.65 1.65 0 00.33 1.82l.06.06a2 2 0 010 2.83 2 2 0 01-2.83 0l-.06-.06a1.65 1.65 0 00-1.82-.33 1.65 1.65 0 00-1 1.51V21a2 2 0 01-2 2 2 2 0 01-2-2v-.09A1.65 1.65 0 009 19.4a1.65 1.65 0 00-1.82.33l-.06.06a2 2 0 01-2.83-2.83l.06-.06A1.65 1.65 0 004.68 15a1.65 1.65 0 00-1.51-1H3a2 2 0 01-2-2 2 2 0 012-2h.09A1.65 1.65 0 004.6 9a1.65 1.65 0 00-.33-1.82l-.06-.06a2 2 0 012.83-2.83l.06.06A1.65 1.65 0 009 4.68a1.65 1.65 0 001-1.51V3a2 2 0 012-2 2 2 0 012 2v.09a1.65 1.65 0 001 1.51 1.65 1.65 0 001.82-.33l.06-.06a2 2 0 012.83 2.83l-.06.06A1.65 1.65 0 0019.4 9a1.65 1.65 0 001.51 1H21a2 2 0 012 2 2 2 0 01-2 2h-.09a1.65 1.65 0 00-1.51 1z"/>
  </symbol>
  <!-- creator -->
  <symbol id="icon-creator" viewBox="0 0 24 24" fill="none" stroke="currentColor" stroke-width="1.8" stroke-linecap="round" stroke-linejoin="round">
    <path d="M12 2L2 7l10 5 10-5-10-5z"/><path d="M2 17l10 5 10-5"/><path d="M2 12l10 5 10-5"/>
  </symbol>
  <!-- games -->
  <symbol id="icon-games" viewBox="0 0 24 24" fill="none" stroke="currentColor" stroke-width="1.8" stroke-linecap="round" stroke-linejoin="round">
    <rect x="2" y="6" width="20" height="12" rx="3"/><path d="M6 12h4M8 10v4M15 12h.01M17 12h.01"/>
  </symbol>
  <!-- admin -->
  <symbol id="icon-admin" viewBox="0 0 24 24" fill="none" stroke="currentColor" stroke-width="1.8" stroke-linecap="round" stroke-linejoin="round">
    <path d="M12 2L4 5v6c0 5.25 3.5 10 8 11 4.5-1 8-5.75 8-11V5z"/>
  </symbol>
  <!-- deposit -->
  <symbol id="icon-deposit" viewBox="0 0 24 24" fill="none" stroke="currentColor" stroke-width="1.8" stroke-linecap="round" stroke-linejoin="round">
    <path d="M12 19V5M5 12l7 7 7-7"/><line x1="5" y1="21" x2="19" y2="21"/>
  </symbol>
  <!-- withdraw -->
  <symbol id="icon-withdraw" viewBox="0 0 24 24" fill="none" stroke="currentColor" stroke-width="1.8" stroke-linecap="round" stroke-linejoin="round">
    <path d="M12 5v14M19 12l-7-7-7 7"/><line x1="5" y1="21" x2="19" y2="21"/>
  </symbol>
  <!-- star -->
  <symbol id="icon-star" viewBox="0 0 24 24" fill="none" stroke="currentColor" stroke-width="1.8" stroke-linecap="round" stroke-linejoin="round">
    <polygon points="12 2 15.09 8.26 22 9.27 17 14.14 18.18 21.02 12 17.77 5.82 21.02 7 14.14 2 9.27 8.91 8.26 12 2"/>
  </symbol>
  <!-- crown -->
  <symbol id="icon-crown" viewBox="0 0 24 24" fill="none" stroke="currentColor" stroke-width="1.8" stroke-linecap="round" stroke-linejoin="round">
    <path d="M3 18h18M4 10l4 6 4-8 4 8 4-6 1 8H3z"/>
  </symbol>
  <!-- gem -->
  <symbol id="icon-gem" viewBox="0 0 24 24" fill="none" stroke="currentColor" stroke-width="1.8" stroke-linecap="round" stroke-linejoin="round">
    <path d="M6 3h12l4 6-10 12L2 9z"/><path d="M2 9h20M12 21L6 9M12 21l6-12M9 3l-3 6M15 3l3 6"/>
  </symbol>
  <!-- shield -->
  <symbol id="icon-shield" viewBox="0 0 24 24" fill="none" stroke="currentColor" stroke-width="1.8" stroke-linecap="round" stroke-linejoin="round">
    <path d="M12 2L4 5v6c0 5.25 3.5 10 8 11 4.5-1 8-5.75 8-11V5z"/>
  </symbol>
  <!-- fire -->
  <symbol id="icon-fire" viewBox="0 0 24 24" fill="none" stroke="currentColor" stroke-width="1.8" stroke-linecap="round" stroke-linejoin="round">
    <path d="M12 2c0 6-6 8-6 13a6 6 0 0012 0c0-5-6-7-6-13z"/><path d="M12 12c0 3-2 4-2 6a2 2 0 004 0c0-2-2-3-2-6z"/>
  </symbol>
  <!-- copy -->
  <symbol id="icon-copy" viewBox="0 0 24 24" fill="none" stroke="currentColor" stroke-width="1.8" stroke-linecap="round" stroke-linejoin="round">
    <rect x="9" y="9" width="13" height="13" rx="2"/><path d="M5 15H4a2 2 0 01-2-2V4a2 2 0 012-2h9a2 2 0 012 2v1"/>
  </symbol>
  <!-- logout -->
  <symbol id="icon-logout" viewBox="0 0 24 24" fill="none" stroke="currentColor" stroke-width="1.8" stroke-linecap="round" stroke-linejoin="round">
    <path d="M9 21H5a2 2 0 01-2-2V5a2 2 0 012-2h4"/><polyline points="16 17 21 12 16 7"/><line x1="21" y1="12" x2="9" y2="12"/>
  </symbol>
  <!-- verified -->
  <symbol id="icon-verified" viewBox="0 0 24 24" fill="none" stroke="currentColor" stroke-width="1.8" stroke-linecap="round" stroke-linejoin="round">
    <path d="M12 2l2.4 4.8 5.3.8-3.85 3.75.91 5.3L12 14.1l-4.76 2.55.91-5.3L4.3 7.6l5.3-.8z" fill="currentColor" stroke="none"/><polyline points="9 12 11 14 15 10" stroke="white" stroke-width="1.5" fill="none"/>
  </symbol>
  <!-- search -->
  <symbol id="icon-search" viewBox="0 0 24 24" fill="none" stroke="currentColor" stroke-width="1.8" stroke-linecap="round" stroke-linejoin="round">
    <circle cx="11" cy="11" r="8"/><path d="M21 21l-4.35-4.35"/>
  </symbol>
  <!-- close -->
  <symbol id="icon-close" viewBox="0 0 24 24" fill="none" stroke="currentColor" stroke-width="2" stroke-linecap="round">
    <line x1="18" y1="6" x2="6" y2="18"/><line x1="6" y1="6" x2="18" y2="18"/>
  </symbol>
  <!-- menu -->
  <symbol id="icon-menu" viewBox="0 0 24 24" fill="none" stroke="currentColor" stroke-width="2" stroke-linecap="round">
    <line x1="3" y1="6" x2="21" y2="6"/><line x1="3" y1="12" x2="21" y2="12"/><line x1="3" y1="18" x2="21" y2="18"/>
  </symbol>
  <!-- check -->
  <symbol id="icon-check" viewBox="0 0 24 24" fill="none" stroke="currentColor" stroke-width="2.5" stroke-linecap="round" stroke-linejoin="round">
    <polyline points="20 6 9 17 4 12"/>
  </symbol>
  <!-- arrow-right -->
  <symbol id="icon-arrow-right" viewBox="0 0 24 24" fill="none" stroke="currentColor" stroke-width="2" stroke-linecap="round" stroke-linejoin="round">
    <line x1="5" y1="12" x2="19" y2="12"/><polyline points="12 5 19 12 12 19"/>
  </symbol>
  <!-- chart -->
  <symbol id="icon-chart" viewBox="0 0 24 24" fill="none" stroke="currentColor" stroke-width="1.8" stroke-linecap="round" stroke-linejoin="round">
    <polyline points="22 12 18 12 15 21 9 3 6 12 2 12"/>
  </symbol>
  <!-- coupon -->
  <symbol id="icon-coupon" viewBox="0 0 24 24" fill="none" stroke="currentColor" stroke-width="1.8" stroke-linecap="round" stroke-linejoin="round">
    <path d="M21 5H3v4a2 2 0 010 4v4h18v-4a2 2 0 010-4V5z"/><line x1="12" y1="5" x2="12" y2="9" stroke-dasharray="2"/><line x1="12" y1="15" x2="12" y2="19" stroke-dasharray="2"/>
  </symbol>
  <!-- payment -->
  <symbol id="icon-payment" viewBox="0 0 24 24" fill="none" stroke="currentColor" stroke-width="1.8" stroke-linecap="round" stroke-linejoin="round">
    <rect x="2" y="5" width="20" height="14" rx="2"/><line x1="2" y1="10" x2="22" y2="10"/>
  </symbol>
  <!-- user-add -->
  <symbol id="icon-user-add" viewBox="0 0 24 24" fill="none" stroke="currentColor" stroke-width="1.8" stroke-linecap="round" stroke-linejoin="round">
    <circle cx="10" cy="8" r="4"/><path d="M2 20c0-4 3.6-7 8-7"/><line x1="19" y1="12" x2="19" y2="18"/><line x1="16" y1="15" x2="22" y2="15"/>
  </symbol>
  <!-- lock -->
  <symbol id="icon-lock" viewBox="0 0 24 24" fill="none" stroke="currentColor" stroke-width="1.8" stroke-linecap="round" stroke-linejoin="round">
    <rect x="3" y="11" width="18" height="11" rx="2"/><path d="M7 11V7a5 5 0 0110 0v4"/>
  </symbol>
  <!-- history -->
  <symbol id="icon-history" viewBox="0 0 24 24" fill="none" stroke="currentColor" stroke-width="1.8" stroke-linecap="round" stroke-linejoin="round">
    <polyline points="1 4 1 10 7 10"/><path d="M3.51 15a9 9 0 102.13-9.36L1 10"/>
  </symbol>
</svg>
